HIERARCHY
ROOT root
{
	OFFSET	0	13.1	24.9
	CHANNELS 6  Xposition Yposition Zposition Xrotation Yrotation Zrotation
	JOINT spine_1
	{
		OFFSET	0	9.99999	0
		CHANNELS 3  Xrotation Yrotation Zrotation
		JOINT spine_2
		{
			OFFSET	0	112	-10
			CHANNELS 3  Xrotation Yrotation Zrotation
			JOINT spine_3
			{
				OFFSET	0	206.5	19.3
				CHANNELS 3  Xrotation Yrotation Zrotation
				JOINT spine_4
				{
					OFFSET	0	110.4	14.6
					CHANNELS 3  Xrotation Yrotation Zrotation
					JOINT neck_1
					{
						OFFSET	0	71.8	-50.3
						CHANNELS 3  Xrotation Yrotation Zrotation
						JOINT neck_2
						{
							OFFSET	0	86.2	-25.8
							CHANNELS 3  Xrotation Yrotation Zrotation
							JOINT head_ee
							{
								OFFSET	0	179.8	-8.7
								CHANNELS 3  Xrotation Yrotation Zrotation
								End Site
								{
									OFFSET	1	0	0
								}
							}
						}
					}
					JOINT left_clavicle
					{
						OFFSET	-43.2	22.4	-70.8
						CHANNELS 3  Xrotation Yrotation Zrotation
						JOINT left_shoulder
						{
							OFFSET	-93.9	-5.79999	48.7
							CHANNELS 3  Xrotation Yrotation Zrotation
							JOINT left_elbow
							{
								OFFSET	-291.4	-30.8	15.2
								CHANNELS 3  Xrotation Yrotation Zrotation
								JOINT left_lowarm_twist
								{
									OFFSET	-110.7	-3.89999	13.6
									CHANNELS 3  Xrotation Yrotation Zrotation
									JOINT left_hand
									{
										OFFSET	-110.7	-3.89999	13.6
										CHANNELS 3  Xrotation Yrotation Zrotation
										JOINT left_ee
										{
											OFFSET	-80.8	-5.10001	12.1
											CHANNELS 3  Xrotation Yrotation Zrotation
											End Site
											{
												OFFSET	1	0	0
											}
										}
									}
								}
							}
						}
					}
					JOINT right_clavicle
					{
						OFFSET	43.2	22.4	-70.8
						CHANNELS 3  Xrotation Yrotation Zrotation
						JOINT right_shoulder
						{
							OFFSET	93.9	-5.79999	48.7
							CHANNELS 3  Xrotation Yrotation Zrotation
							JOINT right_elbow
							{
								OFFSET	291.4	-30.8	15.2
								CHANNELS 3  Xrotation Yrotation Zrotation
								JOINT right_lowarm_twist
								{
									OFFSET	110.7	-3.89999	13.6
									CHANNELS 3  Xrotation Yrotation Zrotation
									JOINT right_hand
									{
										OFFSET	110.7	-3.89999	13.6
										CHANNELS 3  Xrotation Yrotation Zrotation
										JOINT right_ee
										{
											OFFSET	80.8	-5.10001	12.1
											CHANNELS 3  Xrotation Yrotation Zrotation
											End Site
											{
												OFFSET	1	0	0
											}
										}
									}
								}
							}
						}
					}
				}
			}
		}
	}
	JOINT left_hip
	{
		OFFSET	-82.8	-127.5	0.300001
		CHANNELS 3  Xrotation Yrotation Zrotation
		JOINT left_knee
		{
			OFFSET	-28.2	-396.7	2.2
			CHANNELS 3  Xrotation Yrotation Zrotation
			JOINT left_ankle
			{
				OFFSET	-11.7	-411.3	35.4
				CHANNELS 3  Xrotation Yrotation Zrotation
				JOINT left_toes
				{
					OFFSET	0	-60	-88.6
					CHANNELS 3  Xrotation Yrotation Zrotation
					JOINT left_foot_ee
					{
						OFFSET	-22.5	-16.5	-42.2
						CHANNELS 3  Xrotation Yrotation Zrotation
						End Site
						{
							OFFSET	1	0	0
						}
					}
				}
			}
		}
	}
	JOINT right_hip
	{
		OFFSET	82.8	-127.5	0.300001
		CHANNELS 3  Xrotation Yrotation Zrotation
		JOINT right_knee
		{
			OFFSET	28.2	-396.7	2.2
			CHANNELS 3  Xrotation Yrotation Zrotation
			JOINT right_ankle
			{
				OFFSET	11.7	-411.3	35.4
				CHANNELS 3  Xrotation Yrotation Zrotation
				JOINT right_toes
				{
					OFFSET	0	-60	-88.6
					CHANNELS 3  Xrotation Yrotation Zrotation
					JOINT right_foot_ee
					{
						OFFSET	22.5	-16.5	-42.2
						CHANNELS 3  Xrotation Yrotation Zrotation
						End Site
						{
							OFFSET	1	0	0
						}
					}
				}
			}
		}
	}
}
MOTION
Frames: 11
Frame Time: 0.02
894.346 678.695 -1024.94 -149.311 -60.8563 -159.259 4.00671 0.124682 1.80341 4.00852 0.00969215 1.80769 4.00776 -0.245968 1.79091 4.00329 0.0399119 1.80728 7.94027 5.28622 -2.27228 8.16067 10.8788 -2.59625 -0.0 0.0 -0.0 3.71378 16.6139 7.76036 -5.24945 -27.7007 62.2846 1.77133 -41.262 0.666937 35.5674 -0.139005 -4.46926 -2.27875 17.7548 -6.62068 -0.0 0.0 -0.0 3.85161 -12.4498 -7.90164 -20.8496 42.9331 -69.4286 0.267009 7.53485 -0.0175822 71.1651 2.86215 8.03548 -4.67354 -20.5986 19.7754 0.0 0.0 0.0 10.7235 -6.44225 12.1252 -28.4044 0.101867 4.31339 3.63838 10.9617 -0.528082 -33.2941 0.0 0.0 -0.0 0.0 -0.0 40.2414 47.2155 -0.478843 -19.7335 -0.298715 -2.99858 -0.342021 -23.7893 -0.0519483 33.8683 -0.0 -0.0 0.0 0.0 0.0 
916.934 682.904 -1005.62 -151.488 -61.9921 -161.312 3.76104 0.272176 2.17642 3.76366 0.133167 2.18932 3.7674 -0.186818 2.1854 3.76077 0.160585 2.18748 5.49213 2.43288 -4.72114 5.68245 8.30008 -5.33598 -0.0 0.0 -0.0 3.57007 17.6178 7.55339 -6.74472 -27.5932 61.7088 1.67265 -39.6412 0.602907 33.4118 -0.0516407 -4.20795 -2.81942 23.4736 -6.84297 -0.0 0.0 -0.0 3.0499 -10.7493 -6.481 -17.9054 42.2418 -74.7458 0.344736 9.69124 -0.0292248 70.5354 2.79611 7.98892 -4.51445 -20.5033 18.8322 0.0 0.0 0.0 11.7081 -10.1801 12.8104 -31.2646 -0.00644503 4.73893 -12.7593 13.4539 1.91505 -32.3979 0.0 0.0 -0.0 0.0 -0.0 35.9767 47.5652 0.134638 -18.3238 -0.311821 -2.78269 1.17537 -25.8706 0.17984 35.0467 -0.0 -0.0 0.0 0.0 0.0 
939.592 689.434 -990.299 -154.567 -63.4008 -164.764 3.49568 0.156405 2.61166 3.49948 -0.0100414 2.61632 3.4973 -0.403035 2.58513 3.48797 0.0101516 2.61632 2.0621 2.65352 -4.75111 2.22763 8.65818 -5.03543 -0.0 0.0 -0.0 4.11685 18.4434 8.40397 -12.5536 -27.1048 58.0613 1.77037 -41.2467 0.666306 33.3865 -0.0506723 -4.20486 -2.76507 21.6945 -7.48654 -0.0 0.0 -0.0 3.46412 -9.5267 -7.14601 -17.1839 41.545 -77.2943 0.353496 9.93265 -0.0307177 74.982 3.27304 8.30198 -4.86528 -28.4431 15.4245 0.0 0.0 0.0 13.6611 -11.2574 13.6727 -38.7243 -0.387611 5.81887 -18.5021 15.1163 2.79722 -27.5874 0.0 0.0 -0.0 0.0 -0.0 31.8966 47.1689 0.881781 -18.6469 -0.309286 -2.8322 2.1431 -27.7401 0.330765 38.2841 -0.0 -0.0 0.0 0.0 0.0 
957.686 693.788 -979.179 -157.516 -64.2594 -168.078 3.33234 0.201915 2.88456 3.33697 0.0180326 2.89155 3.33599 -0.424727 2.86027 3.32457 0.0321342 2.89143 1.19112 3.13999 -3.49385 1.30713 8.45384 -3.53212 -0.0 0.0 -0.0 4.37046 19.395 8.78678 -14.1079 -25.7931 57.034 1.72998 -40.5924 0.639851 33.7876 -0.0661619 -4.25374 -3.27109 26.6244 -7.6471 -0.0 0.0 -0.0 2.3706 -6.17455 -5.01951 -14.9809 42.5743 -86.0204 0.743745 20.2253 -0.132652 75.4213 3.32146 8.33089 -4.78688 -27.9955 15.2983 0.0 0.0 0.0 15.7503 -12.8561 14.1154 -43.1637 -0.680211 6.4354 -24.079 16.72 3.65815 -27.4624 0.0 0.0 -0.0 0.0 -0.0 25.15 46.7248 3.87838 -14.2216 -0.31971 -2.15348 4.41602 -28.5398 0.68124 39.0444 -0.0 -0.0 0.0 0.0 0.0 
978.449 702.0 -967.552 -161.066 -64.3407 -172.001 3.03787 0.149951 2.80798 3.04226 -0.0289597 2.81183 3.03936 -0.473366 2.77188 3.02864 -0.0298391 2.81182 -0.265875 4.69719 -2.17195 -0.16668 10.1535 -1.82285 -0.0 0.0 -0.0 5.01789 20.5145 9.7361 -17.5349 -23.3676 55.9811 1.77991 -41.3992 0.672603 34.0659 -0.0771062 -4.28757 -3.7472 28.6816 -9.05146 -0.0 0.0 -0.0 2.6094 -6.6256 -5.48067 -16.1664 42.5865 -86.1634 0.760447 20.6415 -0.138483 74.5754 3.22845 8.2749 -4.77162 -28.2052 15.0631 0.0 0.0 0.0 16.8945 -15.5869 13.1392 -46.5595 -0.935902 6.89094 -22.2252 19.9471 3.40865 -26.0896 0.0 0.0 -0.0 0.0 -0.0 19.4245 46.0696 5.82299 -10.9952 -0.294271 -1.65916 4.81411 -28.4134 0.741297 39.2791 -0.0 -0.0 0.0 0.0 0.0 
1007.59 702.695 -965.878 -162.849 -62.37 -174.956 2.86368 0.388628 2.92383 2.86841 0.201872 2.94261 2.87751 -0.274172 2.93676 2.86552 0.192869 2.94321 -1.27926 4.85277 -2.71553 -1.17054 10.8978 -2.29473 -0.0 0.0 -0.0 5.21235 22.5911 9.94744 -22.7927 -22.6082 55.0804 1.7906 -41.5694 0.679684 34.4667 -0.0931656 -4.33624 -3.59565 28.5758 -8.28787 -0.0 0.0 -0.0 2.59344 -6.79723 -5.46275 -15.968 41.7368 -86.5991 0.670917 18.3844 -0.108572 73.1763 3.07645 8.17931 -4.84084 -28.7109 15.0947 0.0 0.0 0.0 22.3583 -13.0823 17.656 -52.4773 -1.4447 7.64644 -21.8693 23.8996 3.40877 -25.6424 0.0 0.0 -0.0 0.0 -0.0 12.7365 45.3492 9.86585 -5.59944 -0.189711 -0.838068 7.06256 -28.0843 1.07874 38.8033 -0.0 -0.0 0.0 0.0 0.0 
1020.64 702.513 -962.792 -162.122 -62.542 -174.048 2.86845 0.426557 2.6981 2.87247 0.25407 2.71975 2.88347 -0.18642 2.72522 2.87319 0.246154 2.72048 -1.16376 5.07599 -3.41942 -1.02115 11.86 -3.03089 -0.0 0.0 -0.0 5.12998 22.5569 9.83102 -24.968 -22.39 55.9344 1.81697 -41.9856 0.697258 35.7603 -0.147302 -4.49248 -3.58704 29.0573 -7.95044 -0.0 0.0 -0.0 2.62047 -5.06399 -5.40052 -15.7462 41.5046 -87.7084 0.664578 18.2223 -0.106582 73.0993 3.06815 8.17394 -4.69939 -28.8401 14.2089 0.0 0.0 0.0 25.3552 -12.008 18.3618 -54.4883 -1.63513 7.89089 -22.9633 27.2798 3.64487 -25.3089 0.0 0.0 -0.0 0.0 -0.0 12.3309 44.3725 9.58264 -5.34373 -0.18284 -0.799426 7.50694 -27.4059 1.14035 38.0822 -0.0 -0.0 0.0 0.0 0.0 
1030.78 705.163 -962.077 -161.089 -63.438 -172.796 2.79729 0.370738 2.52323 2.8008 0.20948 2.54169 2.80923 -0.205127 2.54205 2.80027 0.198784 2.54255 -0.484872 4.96857 -3.50223 -0.331198 11.7229 -3.2046 -0.0 0.0 -0.0 5.11329 22.5836 9.80615 -26.0366 -22.4496 56.8192 1.74239 -40.7948 0.647943 36.386 -0.174753 -4.56762 -3.3953 28.8385 -7.04154 -0.0 0.0 -0.0 2.3716 -5.56264 -4.97899 -15.7472 41.0224 -87.7411 0.638534 17.5528 -0.0985821 73.0014 3.05761 8.1671 -4.54106 -28.6961 13.4242 0.0 0.0 0.0 26.8887 -10.9303 17.9591 -55.1348 -1.69816 7.96806 -23.8322 28.3908 3.80876 -24.0 0.0 0.0 -0.0 0.0 -0.0 12.2057 44.5974 9.68884 -6.27423 -0.207014 -0.940178 8.28635 -27.1855 1.25425 38.8712 -0.0 -0.0 0.0 0.0 0.0 
1062.33 709.568 -951.325 -158.88 -63.7332 -171.507 2.76092 0.476788 2.612 2.76466 0.309673 2.63702 2.77807 -0.123054 2.65228 2.76838 0.297219 2.63845 0.84825 4.89027 -3.58538 1.02411 11.6271 -3.44466 -0.0 0.0 -0.0 4.87788 22.8602 9.4615 -28.2771 -22.0354 57.7286 1.61686 -38.6898 0.567672 37.2795 -0.215376 -4.67439 -3.00476 27.9663 -5.41601 -0.0 0.0 -0.0 2.66505 -5.0954 -5.48434 -16.09 40.2283 -87.3449 0.617048 16.9968 -0.0922018 72.8859 3.04519 8.159 -4.25668 -28.7412 11.8142 0.0 0.0 0.0 29.6749 -9.31625 18.2396 -56.2227 -1.80621 8.09632 -24.9233 29.8915 4.02253 -22.1906 0.0 0.0 -0.0 0.0 -0.0 10.9003 44.0333 10.663 -7.52234 -0.235841 -1.12954 9.54491 -27.4251 1.44148 40.1784 -0.0 -0.0 0.0 0.0 0.0 
1078.01 711.077 -946.861 -157.864 -64.5288 -170.46 2.79788 0.466854 2.68989 2.80186 0.294808 2.71412 2.81488 -0.148526 2.72603 2.80462 0.283701 2.7153 1.86356 4.56624 -3.39653 2.03275 10.8775 -3.36804 -0.0 0.0 -0.0 4.85906 22.9542 9.43187 -30.5749 -21.6316 58.5327 1.57494 -37.9579 0.541678 37.4235 -0.222079 -4.69154 -2.78606 28.0253 -4.19176 -0.0 0.0 -0.0 2.92226 -5.64647 -5.98875 -15.4988 39.4207 -87.4952 0.594554 16.4111 -0.0857362 73.0076 3.05828 8.16753 -4.15302 -28.2805 11.5418 0.0 0.0 0.0 30.2695 -7.92835 16.7528 -56.7128 -1.85568 8.15343 -24.8434 29.4212 3.99698 -19.8457 0.0 0.0 -0.0 0.0 -0.0 10.0825 43.8753 11.1557 -7.41841 -0.233599 -1.11375 10.241 -27.4682 1.54373 40.0541 -0.0 -0.0 0.0 0.0 0.0 
1093.1 715.45 -937.906 -156.079 -65.1501 -168.563 2.91689 0.487827 2.65746 2.92077 0.317799 2.68309 2.9346 -0.11514 2.69938 2.92457 0.312465 2.68372 3.51784 4.57257 -3.42277 3.71111 10.8708 -3.55972 -0.0 0.0 -0.0 5.02021 22.6643 9.67039 -31.7275 -21.094 58.2034 1.42016 -35.1246 0.449495 37.094 -0.206804 -4.65227 -2.59511 28.651 -2.82475 -0.0 0.0 -0.0 3.06338 -5.4694 -6.2365 -15.2536 38.4916 -87.9607 0.56624 15.6689 -0.0779128 73.1356 3.07206 8.17647 -4.07056 -28.0962 11.2028 0.0 0.0 0.0 32.8287 -6.02872 15.5968 -57.4761 -1.9337 8.24154 -25.0275 28.9897 4.01523 -17.1337 0.0 0.0 -0.0 0.0 -0.0 9.78533 42.4738 10.7064 -6.46887 -0.211781 -0.969667 11.0726 -28.6906 1.67789 40.1904 -0.0 -0.0 0.0 0.0 0.0 
